<?xml version="1.0" standalone="no"?>
<!DOCTYPE svg PUBLIC "-//W3C//DTD SVG 20010904//EN"
 "http://www.w3.org/TR/2001/REC-SVG-20010904/DTD/svg10.dtd">
<svg version="1.0" xmlns="http://www.w3.org/2000/svg"
 width="702.000000pt" height="655.000000pt" viewBox="0 0 702.000000 655.000000"
 preserveAspectRatio="xMidYMid meet">

<g transform="translate(0.000000,655.000000) scale(0.100000,-0.100000)"
fill="#000000" stroke="none">
<path d="M985 6519 c-245 -26 -496 -154 -669 -341 -163 -176 -259 -384 -286
-624 -8 -71 -10 -733 -8 -2349 3 -2035 5 -2256 20 -2315 58 -233 157 -409 316
-562 170 -163 348 -253 580 -293 123 -22 5011 -22 5142 -1 468 76 829 439 905
910 23 140 22 4526 0 4665 -79 486 -476 860 -966 911 -123 12 -4913 12 -5034
-1z m5062 -19 c91 -13 256 -61 328 -97 283 -142 488 -392 573 -701 l27 -97 0
-2330 0 -2330 -27 -99 c-115 -417 -441 -719 -855 -791 -128 -22 -5037 -23
-5164 0 -424 74 -763 398 -865 825 -17 71 -19 204 -22 2340 -2 1573 1 2291 8
2350 12 96 60 260 97 335 108 215 302 406 513 504 76 35 220 78 305 90 90 13
4985 13 5082 1z"/>
</g>
</svg>
